HIERARCHY
ROOT Hips
{
	OFFSET 0.00000 0.00000 0.00000
	CHANNELS 6 Xposition Yposition Zposition Zrotation Yrotation Xrotation 
	JOINT LHipJoint
	{
		OFFSET 0 0 0
		CHANNELS 3 Zrotation Yrotation Xrotation
		JOINT LeftHip
		{
			OFFSET 1.37959 -1.78713 0.86582
			CHANNELS 3 Zrotation Yrotation Xrotation
			JOINT LeftKnee
			{
				OFFSET 2.54611 -6.99539 0.00000
				CHANNELS 3 Zrotation Yrotation Xrotation
				JOINT LeftAnkle
				{
					OFFSET 2.59951 -7.14211 0.00000
					CHANNELS 3 Zrotation Yrotation Xrotation
					JOINT LeftToe
					{
						OFFSET 0.18493 -0.50810 1.96120
						CHANNELS 3 Zrotation Yrotation Xrotation
						End Site
						{
							OFFSET 0.00000 -0.00000 1.02054
						}
					}
				}
			}
		}
	}
	JOINT RHipJoint
	{
		OFFSET 0 0 0
		CHANNELS 3 Zrotation Yrotation Xrotation
		JOINT RightHip
		{
			OFFSET -1.33564 -1.78713 0.86582
			CHANNELS 3 Zrotation Yrotation Xrotation
			JOINT RightKnee
			{
				OFFSET -2.52705 -6.94302 0.00000
				CHANNELS 3 Zrotation Yrotation Xrotation
				JOINT RightAnkle
				{
					OFFSET -2.55964 -7.03257 0.00000
					CHANNELS 3 Zrotation Yrotation Xrotation
					JOINT RightToe
					{
						OFFSET -0.25804 -0.70896 2.12109
						CHANNELS 3 Zrotation Yrotation Xrotation
						End Site
						{
							OFFSET -0.00000 -0.00000 1.11821
						}
					}
				}
			}
		}
	}
	JOINT lowerback
	{
		OFFSET 0 0 0
		CHANNELS 3 Zrotation Yrotation Xrotation
		JOINT Chest
		{
			OFFSET -0.02031 2.24248 -0.18900
			CHANNELS 3 Zrotation Yrotation Xrotation
			JOINT Chest2
			{
				OFFSET 0.08342 2.24689 -0.03799
				CHANNELS 3 Zrotation Yrotation Xrotation
				JOINT lowerneck
				{
					OFFSET 0 0 0
					CHANNELS 3 Zrotation Yrotation Xrotation
					JOINT Neck
					{
						OFFSET -0.11607 1.55844 0.24628
						CHANNELS 3 Zrotation Yrotation Xrotation
						JOINT Head
						{
							OFFSET 0.06877 1.60174 -0.17013
							CHANNELS 3 Zrotation Yrotation Xrotation
							End Site
							{
								OFFSET 0.03358 1.61266 -0.08543
							}
						}
					}
				}
				JOINT LeftCollar
				{
					OFFSET 0 0 0
					CHANNELS 3 Zrotation Yrotation Xrotation
					JOINT LeftShoulder
					{
						OFFSET 3.47537 0.55866 -0.72348
CHANNELS 3 Zrotation Xrotation Yrotation
						JOINT LeftElbow
						{
OFFSET 0 -5.381540 0.000000
CHANNELS 3 Zrotation Xrotation Yrotation
							JOINT LeftWrist
							{
OFFSET 0 -3.333120 0.000000
CHANNELS 3 Zrotation Xrotation Yrotation
								JOINT lhand
								{
									OFFSET 0 0 0
CHANNELS 3 Zrotation Xrotation Yrotation
									JOINT LFingers
									{
OFFSET 0 -0.710790 0.000000
CHANNELS 3 Zrotation Xrotation Yrotation
										End Site
										{
OFFSET 0 -0.573060 0.000000
										}
									}
								}
								JOINT LThumb
								{
OFFSET 0 0.000000 0.000000
CHANNELS 3 Zrotation Xrotation Yrotation
									End Site
									{
OFFSET 0 -0.581810 0.581810
									}
								}
							}
						}
					}
				}
				JOINT RightCollar
				{
					OFFSET 0 0 0
					CHANNELS 3 Zrotation Yrotation Xrotation
					JOINT RightShoulder
					{
						OFFSET -3.27844 0.90739 -0.35708
CHANNELS 3 Zrotation Xrotation Yrotation
						JOINT RightElbow
						{
OFFSET 0 -5.169540 0.000000
CHANNELS 3 Zrotation Xrotation Yrotation
							JOINT RightWrist
							{
OFFSET 0 -3.382870 0.000000
CHANNELS 3 Zrotation Xrotation Yrotation
								JOINT rhand
								{
									OFFSET 0 0 0
CHANNELS 3 Zrotation Xrotation Yrotation
									JOINT RFingers
									{
OFFSET 0 -0.817970 0.000000
CHANNELS 3 Zrotation Xrotation Yrotation
										End Site
										{
OFFSET 0 -0.659470 0.000000
										}
									}
								}
								JOINT RThumb
								{
OFFSET 0 0.000000 0.000000
CHANNELS 3 Zrotation Xrotation Yrotation
									End Site
									{
OFFSET 0 -0.669530 0.669530
									}
								}
							}
						}
					}
				}
			}
		}
	}
}
MOTION
Frames: 8
Frame Time: 0.008333333333333333
13.092900 17.829500 11.982800 -178.268000 -10.622500 -171.448000 0.000000 0.000000 0.000000 -5.174000 -5.630400 -10.623100 4.799000 13.153800 39.946800 -0.266300 10.158400 -8.539400 0.838600 -5.841600 -16.325700 0.000000 0.000000 0.000000 18.448800 4.167800 -13.034900 -2.730100 -10.244700 29.772900 -1.318000 -2.571500 -22.749600 -0.064900 1.643700 -4.522000 -2.353800 2.574100 4.722700 1.173400 3.266200 1.811000 2.339800 1.594100 -0.983100 -12.663800 -5.200400 -12.707200 3.998800 -5.527300 15.648600 2.783400 -3.130900 7.382500 0.000000 -0.000000 0.000000 3.342200 0.439100 -14.630400 18.311300 -28.553900 4.697100 0.171400 6.967200 -40.017600 0.000000 0.000000 0.000000 -7.125000 0.000000 0.000000 -44.806800 64.442900 23.253100 0.000000 -0.000000 0.000000 -5.740600 -3.583600 12.917100 -18.666200 -29.001800 -4.867900 -9.727400 -12.620000 -18.443500 0.000000 0.000000 0.000000 7.125000 0.000000 -0.000000 11.993800 11.592400 9.556000
13.150316 17.826947 11.934212 -178.152731 -10.379268 -171.575671 0.000000 0.000000 0.000000 -4.901149 -5.714444 -11.074983 5.069955 13.459773 41.119259 -0.340495 10.830826 -7.594050 0.598651 -4.918428 -13.683273 0.000000 0.000000 0.000000 18.807519 4.300578 -12.516847 -2.673268 -10.146138 29.451461 -1.337114 -2.382036 -22.818178 -0.027474 0.993307 -2.731175 -2.359709 2.552141 4.679146 1.231399 3.232568 1.927436 2.409910 1.571411 -0.840984 -12.917464 -5.370093 -12.727190 4.287264 -5.746967 15.532821 2.894146 -3.218373 7.383740 0.000000 0.000000 0.000000 3.192642 0.490241 -14.328658 18.145109 -28.342404 4.618017 -0.175063 6.963187 -39.817047 0.000000 0.000000 0.000000 -7.125000 0.000000 0.000000 -44.841818 64.204119 23.031901 0.000000 0.000000 0.000000 -5.838797 -3.884539 13.151504 -18.753308 -29.110941 -4.910287 -8.384883 -12.302792 -18.735757 0.000000 0.000000 0.000000 7.125000 0.000000 0.000000 12.857076 11.411691 10.331876
13.205344 17.825495 11.885119 -177.955743 -10.199254 -171.685896 0.000000 0.000000 0.000000 -4.543593 -5.897608 -11.560885 5.346281 13.760512 42.292314 -0.412854 11.523084 -6.534981 0.576591 -4.852623 -13.490687 0.000000 0.000000 0.000000 19.257691 4.336257 -12.013669 -2.605418 -10.026595 29.063360 -1.344889 -2.213599 -22.806000 -0.007402 0.379182 -1.042087 -2.193135 2.492397 4.656848 1.273514 3.156469 2.000304 2.367494 1.529853 -0.742941 -13.114154 -5.520550 -12.686900 4.549100 -5.951484 15.334220 2.990016 -3.295929 7.344167 0.000000 0.000000 0.000000 3.092392 0.591103 -14.109463 18.015462 -28.176909 4.556609 -0.243404 7.024413 -39.824833 0.000000 0.000000 0.000000 -7.125000 0.000000 0.000000 -44.917605 64.190525 23.064996 0.000000 0.000000 0.000000 -5.894115 -4.218120 13.452248 -18.735283 -29.088366 -4.901530 -8.827434 -12.601327 -19.391116 0.000000 0.000000 0.000000 7.125000 0.000000 0.000000 12.571687 10.728131 10.260393
13.258400 17.826258 11.835861 -177.726649 -10.034900 -171.782072 0.000000 0.000000 0.000000 -4.164588 -6.131427 -12.071317 5.625224 14.053358 43.455194 -0.468888 12.074995 -5.542428 0.646477 -5.143042 -14.317181 0.000000 0.000000 0.000000 19.739703 4.276213 -11.543325 -2.530209 -9.892240 28.628859 -1.342701 -2.028553 -22.707426 -0.000477 0.006953 -0.018999 -1.928688 2.431808 4.664692 1.287839 3.084122 2.030886 2.239078 1.492460 -0.698593 -13.191692 -5.656977 -12.580595 4.699681 -6.150944 15.104298 3.032094 -3.374662 7.275645 0.000000 0.000000 0.000000 3.053428 0.742063 -14.016410 17.910059 -28.041834 4.506934 -0.159961 7.112543 -39.971969 0.000000 0.000000 0.000000 -7.125000 0.000000 0.000000 -45.053986 64.317869 23.279323 0.000000 0.000000 0.000000 -5.904704 -4.482681 13.771811 -18.692375 -29.034606 -4.880661 -10.392935 -13.312714 -20.317345 0.000000 0.000000 0.000000 7.125000 0.000000 0.000000 11.572410 9.676320 9.659688
13.309833 17.831511 11.786981 -177.543533 -9.808667 -171.867429 0.000000 0.000000 0.000000 -3.867151 -6.343069 -12.594623 5.902598 14.332410 44.587893 -0.481218 12.190993 -4.932671 0.611969 -5.006689 -13.927675 0.000000 0.000000 0.000000 20.158537 4.105717 -11.142000 -2.452512 -9.750853 28.173912 -1.331101 -1.760371 -22.497535 -0.001936 0.267037 -0.733666 -1.674951 2.432610 4.723056 1.249319 3.094263 2.013814 2.054137 1.498880 -0.733757 -13.023823 -5.785670 -12.386827 4.576241 -6.361492 14.924464 2.945059 -3.473516 7.193060 0.000000 0.000000 0.000000 3.106904 0.952683 -14.145613 17.812445 -27.916278 4.461045 -0.111081 7.167624 -40.166759 0.000000 0.000000 0.000000 -7.125000 0.000000 0.000000 -45.295248 64.468959 23.583764 0.000000 0.000000 0.000000 -5.859472 -4.494208 14.033282 -18.755699 -29.113908 -4.911448 -12.163113 -14.167819 -21.406927 0.000000 0.000000 0.000000 7.125000 0.000000 0.000000 10.466413 8.417994 8.972818
13.360165 17.841428 11.738036 -177.570285 -9.434683 -171.928820 0.000000 0.000000 0.000000 -3.871887 -6.482876 -13.057623 6.182564 14.600646 45.705693 -0.492251 12.320011 -4.639143 0.453418 -4.286587 -11.889460 0.000000 0.000000 0.000000 20.314969 3.985422 -10.726943 -2.367755 -9.592625 27.667923 -1.318270 -1.457340 -22.266656 -0.007994 0.546424 -1.501512 -1.712376 2.491127 4.859667 1.193504 3.169632 1.961181 2.005871 1.539048 -0.866472 -12.969439 -5.901731 -12.267938 4.484476 -6.539847 14.954176 2.888015 -3.567512 7.193646 0.000000 0.000000 0.000000 3.035753 1.234556 -14.141445 17.697796 -27.768311 4.407578 -0.160658 7.449351 -40.047327 0.000000 0.000000 0.000000 -7.125000 0.000000 0.000000 -45.165675 64.370925 23.402783 0.000000 0.000000 0.000000 -5.877201 -4.259915 14.313990 -19.005640 -29.425103 -5.033956 -11.398984 -13.867409 -20.886082 0.000000 0.000000 0.000000 7.125000 0.000000 0.000000 10.939169 9.015849 9.260157
13.408660 17.851858 11.686442 -177.534501 -9.028268 -171.967564 0.000000 0.000000 0.000000 -3.825177 -6.568034 -13.537683 6.461423 14.858912 46.802633 -0.511007 12.551298 -4.333372 0.281126 -3.326227 -9.195710 0.000000 0.000000 0.000000 20.528738 3.963715 -10.315471 -2.285199 -9.435742 27.168580 -1.306642 -1.260380 -22.090439 -0.010445 0.658806 -1.810417 -1.710508 2.532219 4.906291 1.184742 3.226224 1.898738 1.988749 1.569781 -0.958685 -13.064911 -5.966168 -12.012568 4.548346 -6.662560 14.897540 2.916065 -3.630257 7.147914 0.000000 0.000000 0.000000 2.899740 1.559309 -14.042371 17.586956 -27.624946 4.356059 -0.242742 7.757853 -39.893909 0.000000 0.000000 0.000000 -7.125000 0.000000 0.000000 -45.017907 64.239619 23.176950 0.000000 0.000000 0.000000 -5.944346 -4.060265 14.569171 -19.192446 -29.657074 -5.125790 -10.102157 -13.257475 -20.015355 0.000000 0.000000 0.000000 7.125000 0.000000 0.000000 11.756712 10.001489 9.740027
13.454737 17.860978 11.632287 -177.395818 -8.631199 -171.993654 0.000000 0.000000 0.000000 -3.670190 -6.613396 -14.045449 6.738783 15.107128 47.877870 -0.533642 12.837683 -3.966063 0.121197 -2.139372 -5.894006 0.000000 0.000000 0.000000 20.850356 4.026574 -9.901241 -2.206900 -9.284161 26.688437 -1.297383 -1.175813 -21.980390 -0.008794 0.604304 -1.660668 -1.603938 2.541627 4.854298 1.225806 3.247594 1.831199 1.970573 1.582653 -0.996636 -13.266548 -5.976001 -11.608509 4.733605 -6.729138 14.733497 3.011371 -3.661516 7.044208 0.000000 0.000000 0.000000 2.725300 1.922916 -13.885396 17.487655 -27.496202 4.310051 -0.379637 8.003374 -39.758792 0.000000 0.000000 0.000000 -7.125000 0.000000 0.000000 -44.950019 64.105885 22.998315 0.000000 0.000000 0.000000 -6.052190 -3.938525 14.731461 -19.319480 -29.813539 -5.188824 -8.690631 -12.695737 -19.161394 0.000000 0.000000 0.000000 7.125000 0.000000 0.000000 12.656976 10.969808 10.277954
